<mxfile host="app.diagrams.net" modified="2023-04-20T01:31:39.112Z" agent="Mozilla/5.0 (Windows NT 10.0; Win64; x64) AppleWebKit/537.36 (KHTML, like Gecko) Chrome/93.0.4577.63 Safari/537.36 Edg/93.0.961.47" version="21.1.9" etag="01iI_w9mZJzok1RTK0d5" type="github">
  <diagram name="第 1 页" id="HoKVWOjqDg0eMbLdHjok">
    <mxGraphModel>
      <root>
        <mxCell id="0" />
        <mxCell id="1" parent="0" />
      </root>
    </mxGraphModel>
  </diagram>
</mxfile>
